<svg width="26" height="25" viewBox="0 0 26 25" fill="none" xmlns="http://www.w3.org/2000/svg">
<path fill-rule="evenodd" clip-rule="evenodd" d="M13 0.367065C5.8175 0.367065 0 5.97843 0 12.9064C0 18.4551 3.72125 23.1417 8.88875 24.8031C9.53875 24.9129 9.7825 24.5367 9.7825 24.2075C9.7825 23.9097 9.76625 22.9222 9.76625 21.8721C6.5 22.452 5.655 21.104 5.395 20.3987C5.24875 20.0382 4.615 18.9253 4.0625 18.6275C3.6075 18.3924 2.9575 17.8124 4.04625 17.7968C5.07 17.7811 5.80125 18.7059 6.045 19.0821C7.215 20.9786 9.08375 20.4457 9.83125 20.1165C9.945 19.3015 10.2863 18.7529 10.66 18.4394C7.7675 18.1259 4.745 17.0444 4.745 12.2481C4.745 10.8844 5.24875 9.75591 6.0775 8.87815C5.9475 8.56467 5.4925 7.27938 6.2075 5.55522C6.2075 5.55522 7.29625 5.22607 9.7825 6.84051C10.8225 6.55837 11.9275 6.4173 13.0325 6.4173C14.1375 6.4173 15.2425 6.55837 16.2825 6.84051C18.7688 5.21039 19.8575 5.55522 19.8575 5.55522C20.5725 7.27938 20.1175 8.56467 19.9875 8.87815C20.8163 9.75591 21.32 10.8688 21.32 12.2481C21.32 17.0601 18.2812 18.1259 15.3888 18.4394C15.86 18.8313 16.2663 19.5836 16.2663 20.7592C16.2663 22.4363 16.25 23.7843 16.25 24.2075C16.25 24.5367 16.4937 24.9285 17.1438 24.8031C19.7244 23.9627 21.9669 22.3629 23.5556 20.2287C25.1443 18.0946 25.9992 15.5337 26 12.9064C26 5.97843 20.1825 0.367065 13 0.367065Z" fill="white"/>
</svg>
