<svg width="26" height="26" viewBox="0 0 26 26" fill="none" xmlns="http://www.w3.org/2000/svg">
<path d="M23.1 25.3662H2.56666C1.88594 25.3662 1.2331 25.1042 0.751758 24.6377C0.270415 24.1712 0 23.5386 0 22.8789V9.25957C0.0213335 8.84847 0.146016 8.44865 0.363197 8.09491C0.580379 7.74117 0.883477 7.44422 1.24611 7.22991L11.5128 1.26034C11.9115 1.02864 12.3677 0.90625 12.8327 0.90625C13.2976 0.90625 13.7538 1.02864 14.1526 1.26034L24.4192 7.22991C25.1905 7.68136 25.6641 8.48974 25.6666 9.36279V22.8789C25.6666 23.5386 25.3962 24.1712 24.9149 24.6377C24.4335 25.1042 23.7807 25.3662 23.1 25.3662ZM2.56666 10.2781V22.8789H23.1V10.2781L12.8333 16.9106L2.56666 10.2781ZM12.8333 3.39322L4.25553 8.3803L12.8333 13.922L21.4098 8.3803L12.8333 3.39322Z" fill="white"/>
</svg>
