<svg width="26" height="24" viewBox="0 0 26 24" fill="none" xmlns="http://www.w3.org/2000/svg">
<path d="M22.1914 0H3.80859C1.70871 0 0 1.57727 0 3.51562V20.4844C0 22.4227 1.70871 24 3.80859 24H22.1914C24.2913 24 26 22.4227 26 20.4844V3.51562C26 1.57727 24.2913 0 22.1914 0ZM9.19141 19.0312H6.14453V9.1875H9.19141V19.0312ZM9.19141 7.78125H6.14453V4.96875H9.19141V7.78125ZM19.8555 19.0312H16.8086V13.4062C16.8086 12.631 16.125 12 15.2852 12C14.4453 12 13.7617 12.631 13.7617 13.4062V19.0312H10.7148V9.1875H13.7617V9.71759C14.5599 9.48853 15.0785 9.1875 16.0469 9.1875C18.1132 9.18951 19.8555 10.9006 19.8555 12.9229V19.0312Z" fill="#D1EDF3"/>
</svg>
