<svg width="61" height="57" viewBox="0 0 61 57" fill="none" xmlns="http://www.w3.org/2000/svg">
<path d="M61 27.7614C61 23.9851 55.9395 20.406 48.1798 18.1877C49.9717 10.7991 49.1762 4.91862 45.6687 3.03525C44.8188 2.59046 43.8569 2.36657 42.883 2.38687V4.97562C43.4549 4.97562 43.9149 5.0825 44.3013 5.27962C45.9915 6.18687 46.726 9.63537 46.1541 14.0742C46.0169 15.1667 45.7932 16.3162 45.5187 17.4895C42.9202 16.9044 40.2829 16.4815 37.6243 16.2236C36.0405 14.1818 34.3125 12.2411 32.452 10.4144C36.506 6.89463 40.3108 4.96613 42.8983 4.96613V2.375C39.4772 2.375 35.0013 4.65262 30.4746 8.60225C25.9504 4.67875 21.472 2.4225 18.0535 2.4225V5.01125C20.6282 5.01125 24.4458 6.93025 28.4997 10.4262C26.7587 12.1362 25.0176 14.0742 23.363 16.2236C20.6989 16.4786 18.0569 16.9056 15.4559 17.5014C15.1687 16.34 14.9577 15.2142 14.8078 14.1336C14.2232 9.69237 14.945 6.24387 16.625 5.32712C16.9961 5.11812 17.4816 5.02312 18.0535 5.02312V2.43437C17.0114 2.43437 16.0633 2.64337 15.2449 3.08275C11.7501 4.96612 10.9673 10.8324 12.7693 18.1996C5.03504 20.4321 0 23.997 0 27.7614C0 31.5376 5.06046 35.1167 12.8202 37.3326C11.0283 44.7236 11.8238 50.6041 15.3313 52.4851C16.1396 52.9269 17.0851 53.1359 18.1272 53.1359C21.5483 53.1359 26.0241 50.8582 30.5508 46.9086C35.075 50.8345 39.5509 53.0884 42.972 53.0884C43.9533 53.1077 44.9225 52.8832 45.7805 52.4376C49.2753 50.5566 50.0581 44.6904 48.2561 37.3231C55.965 35.1049 61 31.5257 61 27.7614ZM44.8096 20.0117C44.3266 21.5647 43.7669 23.0958 43.1321 24.6002C42.093 22.7115 40.952 20.8733 39.7135 19.0926C41.48 19.3372 43.1829 19.6389 44.8121 20.0117H44.8096ZM39.1163 32.3855C38.1479 33.953 37.1515 35.4421 36.1196 36.8244C32.3891 37.1316 28.6371 37.1356 24.9058 36.8362C22.7656 33.9796 20.8939 30.9552 19.3116 27.797C20.8914 24.6314 22.7552 21.5964 24.8829 18.7245C28.6125 18.4166 32.3637 18.4119 36.0942 18.7102C37.1261 20.0925 38.1352 21.5697 39.1035 23.1277C40.049 24.6477 40.9081 26.1915 41.691 27.7495C40.8994 29.3264 40.0405 30.873 39.1163 32.3855ZM43.1321 30.875C43.8031 32.4306 44.3775 33.9886 44.8477 35.4991C43.221 35.872 41.5029 36.1855 39.7262 36.4277C40.9596 34.6309 42.0963 32.7776 43.1321 30.875ZM30.5254 43.2725C29.369 42.1562 28.2125 40.9141 27.0688 39.5532C28.1871 39.6007 29.3308 39.6364 30.4873 39.6364C31.6565 39.6364 32.8129 39.6126 33.944 39.5532C32.8256 40.9141 31.6692 42.1562 30.5254 43.2725ZM21.2738 36.4277C19.56 36.1957 17.8587 35.8898 16.1752 35.511C16.6352 34.0124 17.2071 32.4662 17.8527 30.9225C18.3635 31.8487 18.8998 32.7797 19.4844 33.7107C20.069 34.6394 20.6637 35.5466 21.2738 36.4277ZM30.4619 12.2502C31.6183 13.3665 32.7748 14.6086 33.9185 15.9695C32.8002 15.922 31.6565 15.8864 30.5 15.8864C29.3308 15.8864 28.1744 15.9101 27.0433 15.9695C28.1617 14.6086 29.3181 13.3665 30.4619 12.2502ZM21.261 19.095C20.028 20.888 18.8913 22.7372 17.8552 24.6359C17.2025 23.1217 16.63 21.5785 16.1396 20.0117C17.7663 19.6507 19.4844 19.3372 21.261 19.095ZM10.0091 33.6395C5.60692 31.8867 2.76025 29.5854 2.76025 27.7614C2.76025 25.9374 5.60692 23.6241 10.0091 21.8832C11.0766 21.4534 12.2458 21.0686 13.453 20.71C14.1622 22.9852 15.095 25.3555 16.2489 27.7851C15.1594 30.0703 14.2381 32.4223 13.4912 34.8246C12.3104 34.483 11.1483 34.0875 10.0091 33.6395ZM16.6988 50.2407C15.0085 49.3382 14.274 45.885 14.8459 41.4485C14.9831 40.356 15.2068 39.2041 15.4813 38.0309C17.9162 38.589 20.5773 39.0189 23.3757 39.2991C24.9596 41.3409 26.6876 43.2816 28.548 45.1084C24.494 48.6281 20.6892 50.5566 18.1018 50.5566C17.6136 50.5616 17.1317 50.4539 16.6988 50.2431V50.2407ZM46.1922 41.3891C46.7768 45.828 46.055 49.2789 44.375 50.1956C44.0039 50.4046 43.5184 50.4972 42.9465 50.4972C40.3718 50.4972 36.5542 48.5806 32.5003 45.0822C34.2413 43.377 35.9824 41.4366 37.637 39.2872C40.3011 39.0322 42.9431 38.6053 45.5441 38.0095C45.8313 39.1827 46.0525 40.3085 46.1922 41.3891ZM50.9782 33.6395C49.9107 34.0694 48.7415 34.4541 47.5343 34.8127C46.7742 32.3981 45.8401 30.0343 44.7384 27.7376C45.8822 25.3222 46.7997 22.9639 47.4961 20.6981C48.7288 21.0567 49.8955 21.4534 50.9909 21.8832C55.3931 23.636 58.2397 25.9374 58.2397 27.7614C58.227 29.5854 55.3804 31.8986 50.9782 33.6395Z" fill="white"/>
<path d="M30.4873 33.0719C31.9946 33.0719 33.4401 32.5124 34.5059 31.5165C35.5717 30.5206 36.1705 29.1699 36.1705 27.7614C36.1705 26.353 35.5717 25.0022 34.5059 24.0063C33.4401 23.0104 31.9946 22.4509 30.4873 22.4509C28.98 22.4509 27.5345 23.0104 26.4687 24.0063C25.4029 25.0022 24.8041 26.353 24.8041 27.7614C24.8041 29.1699 25.4029 30.5206 26.4687 31.5165C27.5345 32.5124 28.98 33.0719 30.4873 33.0719Z" fill="white"/>
</svg>
