<svg width="26" height="20" viewBox="0 0 26 20" fill="none" xmlns="http://www.w3.org/2000/svg">
<path d="M25.9333 2.36527C24.9689 2.76639 23.9413 3.03227 22.87 3.16137C23.9721 2.5374 24.8133 1.55686 25.2088 0.375C24.1812 0.955943 23.0466 1.36629 21.8375 1.59529C20.8617 0.610144 19.4711 0 17.954 0C15.0105 0 12.6409 2.26537 12.6409 5.04252C12.6409 5.44211 12.6765 5.82633 12.7641 6.19211C8.34405 5.98771 4.43298 3.979 1.80561 0.919058C1.34691 1.67367 1.07785 2.5374 1.07785 3.46721C1.07785 5.21312 2.02604 6.76076 3.43941 7.65676C2.58523 7.64139 1.74726 7.40625 1.03733 7.03586C1.03733 7.05123 1.03733 7.07121 1.03733 7.09119C1.03733 9.54098 2.88022 11.5758 5.29688 12.0446C4.86412 12.1568 4.39246 12.2106 3.90297 12.2106C3.56259 12.2106 3.21898 12.1921 2.89643 12.1245C3.58528 14.1209 5.54001 15.5886 7.86428 15.6363C6.05543 16.978 3.75871 17.7864 1.27235 17.7864C0.83635 17.7864 0.418175 17.7679 0 17.7172C2.35507 19.1573 5.14615 19.9795 8.15603 19.9795C17.9394 19.9795 23.2881 12.2951 23.2881 5.63422C23.2881 5.41137 23.28 5.19621 23.2687 4.98258C24.3238 4.27254 25.2104 3.38576 25.9333 2.36527Z" fill="#D1EDF3"/>
</svg>
